<?xml version="1.0" encoding="UTF-8" standalone="no"?>
<!-- Generator: Adobe Illustrator 17.0.0, SVG Export Plug-In . SVG Version: 6.00 Build 0)  -->

<svg
   xmlns:dc="http://purl.org/dc/elements/1.1/"
   xmlns:cc="http://creativecommons.org/ns#"
   xmlns:rdf="http://www.w3.org/1999/02/22-rdf-syntax-ns#"
   xmlns:svg="http://www.w3.org/2000/svg"
   xmlns="http://www.w3.org/2000/svg"
   xmlns:sodipodi="http://sodipodi.sourceforge.net/DTD/sodipodi-0.dtd"
   xmlns:inkscape="http://www.inkscape.org/namespaces/inkscape"
   version="1.1"
   id="Layer_1"
   x="0px"
   y="0px"
   width="42px"
   height="42px"
   viewBox="0 0 42 42"
   enable-background="new 0 0 42 42"
   xml:space="preserve"
   inkscape:version="0.91 r13725"
   sodipodi:docname="OmnitureInput.svg"><metadata
     id="metadata4384"><rdf:RDF><cc:Work
         rdf:about=""><dc:format>image/svg+xml</dc:format><dc:type
           rdf:resource="http://purl.org/dc/dcmitype/StillImage" /><dc:title></dc:title></cc:Work></rdf:RDF></metadata><defs
     id="defs4382" /><sodipodi:namedview
     pagecolor="#ffffff"
     bordercolor="#666666"
     borderopacity="1"
     objecttolerance="10"
     gridtolerance="10"
     guidetolerance="10"
     inkscape:pageopacity="0"
     inkscape:pageshadow="2"
     inkscape:window-width="640"
     inkscape:window-height="480"
     id="namedview4380"
     showgrid="false"
     inkscape:zoom="5.6190476"
     inkscape:cx="21"
     inkscape:cy="21"
     inkscape:window-x="2193"
     inkscape:window-y="159"
     inkscape:window-maximized="0"
     inkscape:current-layer="Layer_1" /><polygon
     style="fill:#3d6480"
     id="polygon4368"
     points="31.587,30.927 30.243,32.27 35.47,37.497 32.323,37.497 32.323,39.397 38.713,39.394 38.713,33.069 36.813,33.069 36.813,36.152 " /><path
     style="fill:#dbf3db"
     inkscape:connector-curvature="0"
     id="path4370"
     d="m 27.898491,12.596169 0,-4.2579995 -13.38,0 0,24.4119995 11.019,0 6.657,-6.657 -0.039,-13.497 -4.257,0 z m -8.216,10.648 -1.286,-2.008 -1.279,2.008 -0.974,0 1.75,-2.738 -1.694,-2.661 0.972,0 1.226,1.93 1.232,-1.93 0.973,0 -1.704,2.661 1.759,2.738 -0.975,0 z m 5.885,0 -0.091,-3.749 -1.152,3.08 -1.054,0 -1.153,-3.08 -0.09,3.749 -0.864,0 0.187,-5.399 1.028,0 1.419,3.807 1.42,-3.807 1.027,0 0.187,5.399 -0.864,0 z m 5.023,0 -3.135,0 0,-5.399 0.886,0 0,4.584 2.249,0 0,0.815 z" /><polygon
     style="fill:#3d6480"
     id="polygon4372"
     points="25.217,7.529 10.15,7.529 10.15,35.339 21.168,35.339 22.867,33.64 11.849,33.64 11.849,9.228 25.229,9.228 25.229,13.486 29.486,13.486 29.524,26.983 31.219,25.288 31.186,13.498 29.475,11.787 26.928,11.787 26.928,9.24 "
     transform="translate(2.6694915,-0.88983051)" /><path
     style="fill:#eff9fe;fill-opacity:1"
     d="m 20.027511,32.680902 -5.434291,-0.04706 0,-12.099123 0,-12.0991228 6.584746,0 6.584745,0 0,2.1355928 0,2.135593 2.131439,0 2.131438,0 0.04865,6.718221 0.04865,6.71822 -3.33054,3.292373 -3.330539,3.292373 -5.434291,-0.04706 z m -2.232682,-10.447011 0.6211,-0.971051 0.59448,0.971969 c 0.502241,0.82116 0.675446,0.97197 1.116302,0.97197 l 0.521821,0 -0.472289,-0.756356 c -0.259759,-0.415996 -0.621145,-0.96893 -0.80308,-1.228744 -0.181935,-0.259813 -0.330791,-0.581007 -0.330791,-0.713764 0,-0.132757 0.362069,-0.781093 0.804596,-1.440748 l 0.804596,-1.199371 -0.539291,0 c -0.455504,0 -0.624359,0.13825 -1.086811,0.889831 -0.301135,0.489406 -0.581431,0.88983 -0.622881,0.88983 -0.04145,0 -0.321746,-0.400424 -0.622881,-0.88983 -0.456813,-0.742416 -0.634345,-0.889831 -1.071621,-0.889831 l -0.524102,0 0.654614,1.023305 c 0.360038,0.562818 0.736136,1.153832 0.835773,1.313365 0.139505,0.223367 0.018,0.550721 -0.528452,1.423729 -0.390285,0.623518 -0.768648,1.233775 -0.840807,1.356127 -0.09222,0.156373 0.01731,0.222184 0.368713,0.221539 0.410523,-7.48e-4 0.610967,-0.174549 1.121011,-0.97197 z m 4.272967,-0.747451 c 0,-0.946186 0.04623,-1.674108 0.102734,-1.617605 0.0565,0.0565 0.319202,0.690508 0.583774,1.408898 0.443309,1.203713 0.523904,1.310384 1.027509,1.359953 0.533458,0.05251 0.559543,0.01861 1.095661,-1.423729 l 0.549194,-1.477517 0.01124,1.73517 0.01124,1.735169 0.557184,0 c 0.544823,0 0.554737,-0.0148 0.446874,-0.667373 -0.06067,-0.367055 -0.111192,-1.568326 -0.112269,-2.669491 l -0.002,-2.002119 -0.583302,0 c -0.573808,0 -0.593067,0.02679 -1.183308,1.646187 -0.330004,0.905402 -0.65705,1.711163 -0.726769,1.790579 -0.06972,0.07942 -0.407955,-0.641347 -0.751633,-1.601695 C 22.5064,18.061135 22.43738,17.953565 21.939072,17.902996 l -0.529982,-0.05378 -0.11432,1.210563 c -0.06288,0.665809 -0.114889,1.871262 -0.115585,2.678783 -0.0012,1.447795 0.0049,1.46822 0.44365,1.46822 0.443892,0 0.444915,-0.004 0.444915,-1.720339 z m 8.542373,1.275424 c 0,-0.428944 -0.04153,-0.444915 -1.15678,-0.444915 l -1.156779,0 0,-2.224577 0,-2.224576 -0.444916,0 -0.444915,0 0,2.669492 0,2.669491 1.601695,0 c 1.58983,0 1.601695,-0.0033 1.601695,-0.444915 z"
     id="path4496"
     inkscape:connector-curvature="0" /><path
     style="fill:#eff9fe;fill-opacity:1"
     d="m 14.59322,20.537288 0,-12.1016948 6.584746,0 6.584745,0 0,2.1355928 0,2.135593 2.135594,0 2.135593,0 0,6.720025 0,6.720023 -3.249639,3.246079 -3.249638,3.246077 -5.470701,0 -5.4707,0 0,-12.101695 z m 5.894965,2.266101 c -0.175763,-0.174454 -0.196204,-0.154012 -0.09962,0.09962 0.06683,0.175514 0.166344,0.274285 0.221137,0.219491 0.05479,-0.05479 1.13e-4,-0.198395 -0.121512,-0.319116 z m 5.090846,-1.32781 c -0.03852,-0.369238 -0.07069,-0.110749 -0.07148,0.574421 -7.83e-4,0.685169 0.03073,0.987273 0.07005,0.671342 0.03932,-0.315931 0.03996,-0.876525 0.0014,-1.245763 l -6e-6,0 z m 0.888691,0.08501 c -0.03948,-0.318115 -0.07178,-0.05784 -0.07178,0.57839 0,0.636228 0.0323,0.896504 0.07178,0.578389 0.03948,-0.318114 0.03948,-0.838665 0,-1.156779 z m -2.397807,0.994424 c -0.122352,-0.04937 -0.322564,-0.04937 -0.444916,0 -0.122351,0.04937 -0.02224,0.08976 0.222458,0.08976 0.244703,0 0.344809,-0.04039 0.222458,-0.08976 z m 5.957895,-0.189982 c -0.369239,-0.03852 -0.929832,-0.03788 -1.245763,0.0014 -0.315931,0.03931 -0.01383,0.07083 0.671342,0.07004 0.68517,-7.83e-4 0.943659,-0.03296 0.574421,-0.07148 z m -5.118007,-1.0269 c 0,-0.09788 -0.07763,-0.05784 -0.172515,0.08898 -0.09488,0.146822 -0.172516,0.347034 -0.172516,0.444915 0,0.09788 0.07763,0.05784 0.172516,-0.08898 0.09488,-0.146822 0.172515,-0.347034 0.172515,-0.444915 z m -7.117151,-0.811324 c 0.0022,-0.152585 -0.117471,-0.432881 -0.265884,-0.622882 -0.249433,-0.319328 -0.253679,-0.307732 -0.05615,0.153322 0.178538,0.416721 0.161933,0.592389 -0.100933,1.067797 l -0.314627,0.569019 0.366817,-0.444915 c 0.201749,-0.244703 0.368598,-0.569757 0.370774,-0.722341 z m 6.31025,0.366409 c 0.104997,-0.39763 0.09513,-0.408963 -0.09285,-0.106633 -0.201905,0.324735 -0.220555,0.321172 -0.465705,-0.08898 -0.181043,-0.302899 -0.220021,-0.323663 -0.13391,-0.07133 0.06681,0.195762 0.163147,0.501373 0.21409,0.679134 0.10985,0.38331 0.314988,0.206554 0.478371,-0.412185 z m -1.479483,-0.120127 c -0.209794,-0.360776 -0.260455,-0.2453 -0.08872,0.20223 0.06103,0.159049 0.148459,0.25169 0.194279,0.205869 0.04582,-0.04582 -0.0017,-0.229465 -0.105557,-0.408099 z m -1.315574,-1.433107 c -0.03852,-0.369238 -0.07069,-0.110749 -0.07148,0.57442 -7.83e-4,0.68517 0.03073,0.987274 0.07005,0.671343 0.03931,-0.315932 0.03996,-0.876525 0.0014,-1.245763 l -6e-6,0 z m -2.136279,1.199421 c -0.01581,-0.209947 -0.09185,-0.288616 -0.186993,-0.193473 -0.08819,0.08819 -0.106532,0.247403 -0.04077,0.353813 0.179151,0.289873 0.257517,0.234703 0.22776,-0.16034 z m 6.262352,-0.713984 c -0.0065,-0.176018 -0.06188,-0.145708 -0.162732,0.08898 -0.210235,0.489244 -0.210235,0.770232 0,0.444916 0.09488,-0.146822 0.168113,-0.387077 0.162732,-0.533899 z m -3.012915,0.400424 c -0.0015,-0.07341 -0.08036,-0.253602 -0.175241,-0.400424 -0.139503,-0.215865 -0.173037,-0.190323 -0.175241,0.133475 -0.0015,0.220233 0.07736,0.400424 0.175241,0.400424 0.09788,0 0.17674,-0.06006 0.175241,-0.133475 z m 2.132868,-0.489407 c 0,-0.09788 -0.07763,-0.05784 -0.172516,0.08898 -0.09488,0.146822 -0.172515,0.347034 -0.172515,0.444915 0,0.09788 0.07763,0.05784 0.172515,-0.08898 0.09488,-0.146822 0.172516,-0.347033 0.172516,-0.444915 z m -4.9776,-0.08898 c 0.104769,-0.195763 0.150447,-0.355932 0.101506,-0.355932 -0.04894,0 -0.174703,0.160169 -0.279472,0.355932 -0.104769,0.195763 -0.150447,0.355932 -0.101507,0.355932 0.04894,0 0.174704,-0.160169 0.279473,-0.355932 z m -0.749739,-0.543652 0.259537,-0.435161 -0.337552,0.405059 c -0.274021,0.328824 -0.380601,0.362319 -0.56629,0.177966 -0.185879,-0.184542 -0.205982,-0.167329 -0.107285,0.09187 0.153375,0.402795 0.418888,0.318105 0.75159,-0.239733 z m 7.457813,-1.010164 c -0.04512,-0.173156 -0.08501,-0.07457 -0.08863,0.21907 -0.0036,0.293644 0.03329,0.435317 0.08204,0.314828 0.04875,-0.120489 0.05172,-0.360743 0.0066,-0.533898 z"
     id="path4498"
     inkscape:connector-curvature="0" /><flowRoot
     transform="matrix(1.6915379,0,0,1.6260531,-1.94091,-14.805422)"
     style="font-style:normal;font-weight:normal;font-size:11.25px;line-height:125%;font-family:sans-serif;letter-spacing:0px;word-spacing:0px;fill:#3d6480;fill-opacity:1;stroke:none;stroke-width:1px;stroke-linecap:butt;stroke-linejoin:miter;stroke-opacity:1"
     id="flowRoot4259"
     xml:space="preserve"><flowRegion
       id="flowRegion4261"><rect
         style="fill:#3d6480;fill-opacity:1"
         y="16.965517"
         x="12.051724"
         height="15.465517"
         width="22.448277"
         id="rect4263" /></flowRegion><flowPara
       style="font-size:7.5px;fill:#3d6480;fill-opacity:1"
       id="flowPara4265">A</flowPara></flowRoot></svg>